<svg width="500" height="500" viewBox="0 0 500 500" fill="none" xmlns="http://www.w3.org/2000/svg">
<path d="M106 80C149.933 49.2094 199.77 33 250.5 33C301.23 33 351.066 49.2094 395 80" stroke="black" stroke-width="35" stroke-linecap="round"/>
<path d="M351 135C320.293 113.382 285.458 102 250 102C214.542 102 179.708 113.382 149 135" stroke="black" stroke-width="35" stroke-linecap="round"/>
<path d="M116 67C156.893 38.8299 203.281 24 250.5 24C297.719 24 344.107 38.8299 385 67" stroke="#0088FF" stroke-width="35" stroke-linecap="round"/>
<path d="M347 126C317.661 106.347 284.378 96 250.5 96C216.621 96 183.34 106.347 154 126" stroke="#0088FF" stroke-width="35" stroke-linecap="round"/>
<path d="M140.426 382.545C140.426 369.207 138.046 354.682 133.288 338.969H229.735C229.918 341.71 229.735 350.8 229.735 356.098C229.735 379.485 206.388 404.284 197.528 408.855C180.775 417.497 167.147 423.563 156.897 431.054C146.831 438.362 141.798 445.945 141.798 453.801C141.798 461.658 145.184 469.057 151.956 476H83.0486C52.1182 436.718 32.718 391.041 24.8481 338.969H99.795C100.527 372.405 109.129 405.018 125.601 436.809C135.484 420.366 140.426 402.278 140.426 382.545Z" fill="#FF383C"/>
<path d="M371.34 351.576C371.34 346.643 370.608 342.441 369.144 338.969H472.094C478.683 356.509 458.824 377.977 461.935 403.374C465.23 428.77 466.968 452.979 467.151 476H403.735C402.453 443.113 397.054 411.413 387.537 380.901C371.615 411.961 363.013 443.661 361.732 476H307.923C303.165 440.189 294.014 408.398 280.47 380.627C270.587 403.831 265.646 425.39 265.646 445.305C265.646 456.085 266.927 466.317 269.489 476H202.778C201.497 468.509 200.857 458.643 200.857 446.401C200.857 433.977 203.388 421.279 207.048 408.855C208.059 403.376 232.437 391.272 236.353 386.228C244.437 378.159 244.379 369.657 246.458 357.986C248.344 347.398 249.489 346.89 255.214 338.969H341.965C348.92 357.788 354.136 378.252 357.614 400.359C366.765 383.367 371.34 367.106 371.34 351.576Z" fill="#FF383C"/>
<path d="M240.194 198.53L239.782 212.507C217.82 224.292 190.367 233.473 157.423 240.05C181.033 246.354 203.819 249.505 225.781 249.505H234.429C249.528 271.704 225.343 299.385 229.735 332.546H133.22C130.475 313.362 148.638 296.918 140.127 283.215C131.892 269.238 121.734 259.783 109.655 254.85C109.38 259.509 109.243 268.827 109.243 282.804C109.243 296.781 99.4016 313.362 101.049 332.546H21.9421C13.9807 292.807 10 255.946 10 221.962C10 187.705 11.9217 156.05 15.7651 127H230.723C237.037 154.68 240.194 178.524 240.194 198.53ZM118.302 154.543C115.008 178.661 112.537 202.367 110.89 225.662C125.989 223.47 138.343 218.125 147.952 209.629C142.736 191.267 132.852 172.905 118.302 154.543Z" fill="#FF383C"/>
<path d="M408.641 211.771L447.35 214.237C451.193 214.237 454.076 214.1 455.997 213.826L436.643 250.002H432.937C427.721 250.002 420.308 248.632 410.7 245.891C401.091 242.877 394.228 241.369 390.11 241.369C378.854 241.369 369.932 248.632 363.343 263.157C362.245 276.586 361.422 290.015 360.873 303.444C375.148 306.185 386.404 307.555 394.64 307.555H398.346C410.151 307.555 419.485 304.952 426.348 299.744C433.486 294.537 438.565 285.219 441.584 271.79L491 273.846C486.882 297.415 481.391 317.695 474.528 334.687H255.214C249.723 297.689 264.1 260.965 264.1 224.515C264.1 188.064 266.022 156.273 269.866 129.141H490.588C485.647 158.74 481.254 179.568 477.411 191.627C461.213 192.449 446.389 192.997 432.937 193.272C435.133 186.968 436.231 181.076 436.231 175.595C436.231 162.44 426.348 155.862 406.582 155.862C399.17 155.862 390.934 156.684 381.874 158.329C375.834 184.365 371.167 207.249 367.873 226.981C378.854 216.841 392.444 211.771 408.641 211.771Z" fill="#FF383C"/>
<path d="M101.263 337.47L101.295 338.937C102.003 371.274 110.126 402.85 125.687 433.68C134.509 418.109 138.926 401.075 138.926 382.545C138.926 369.384 136.578 355.007 131.853 339.404L131.267 337.47H231.138L231.231 338.869C231.419 341.675 231.235 350.896 231.235 356.099C231.235 368.248 225.194 380.606 218.174 390.406C214.649 395.328 210.841 399.654 207.343 403.049C203.868 406.421 200.624 408.946 198.216 410.188C181.339 418.895 167.906 424.865 157.782 432.265L157.778 432.268C147.87 439.461 143.298 446.653 143.298 453.801C143.298 461.179 146.463 468.221 153.029 474.953L155.515 477.5H82.3203L81.8701 476.928C50.7702 437.43 31.2718 391.508 23.3652 339.193L23.1045 337.47H101.263ZM343.01 337.47L343.372 338.449C349.893 356.093 354.887 375.163 358.362 395.652C366.035 380.281 369.84 365.595 369.84 351.576C369.84 346.785 369.128 342.792 367.762 339.553L366.883 337.47H473.133L473.498 338.442C475.273 343.168 475.239 348.096 474.324 353.129C473.413 358.141 471.603 363.375 469.734 368.721C465.963 379.511 461.92 390.891 463.423 403.181L463.728 405.563C466.831 430.146 468.474 453.622 468.651 475.988L468.663 477.5H402.292L402.235 476.059C401.009 444.579 395.993 414.2 387.194 384.916C372.437 414.73 364.457 445.108 363.23 476.06L363.173 477.5H306.609L306.437 476.197C301.867 441.811 293.237 411.184 280.565 384.298C271.602 406.187 267.146 426.517 267.146 445.305C267.146 455.965 268.413 466.067 270.939 475.616L271.438 477.5H201.513L201.3 476.253C199.998 468.644 199.356 458.683 199.356 446.401C199.356 433.798 201.919 420.964 205.595 408.479C205.823 407.414 206.527 406.406 207.317 405.519C208.169 404.563 209.292 403.561 210.567 402.544C213.12 400.509 216.441 398.29 219.796 396.119C223.18 393.93 226.588 391.798 229.424 389.879C230.837 388.923 232.08 388.038 233.081 387.247C234.102 386.441 234.794 385.791 235.168 385.309L235.227 385.233L235.293 385.167C242.952 377.522 242.851 369.681 244.981 357.723C245.929 352.404 246.716 349.447 248.059 346.799C249.367 344.219 251.208 341.951 253.998 338.091L254.447 337.47H343.01ZM492.359 127.642L492.067 129.389C487.126 158.988 482.719 179.912 478.84 192.083L478.524 193.072L477.486 193.125C461.277 193.948 446.437 194.497 432.968 194.771L430.811 194.815L431.521 192.778C433.673 186.6 434.731 180.876 434.731 175.595C434.731 169.455 432.46 165.021 427.987 162.044C423.407 158.995 416.346 157.362 406.582 157.362C399.542 157.362 391.72 158.116 383.112 159.632C377.598 183.467 373.244 204.631 370.05 223.127C380.739 214.547 393.628 210.271 408.641 210.271H408.688L408.736 210.273L447.396 212.736C451.199 212.735 453.98 212.598 455.785 212.341L458.717 211.923L457.32 214.534L437.966 250.71L437.542 251.502H432.937C427.507 251.502 419.932 250.085 410.288 247.334L410.251 247.322C400.638 244.306 393.973 242.869 390.11 242.869C379.741 242.869 371.267 249.455 364.816 263.544C363.766 276.433 362.971 289.321 362.427 302.21C376.062 304.782 386.787 306.055 394.64 306.055H398.346C409.942 306.055 418.92 303.497 425.441 298.55L425.453 298.541L425.464 298.532C432.182 293.631 437.139 284.724 440.121 271.461L440.396 270.239L441.646 270.291L491.062 272.347L492.772 272.418L492.478 274.104C488.347 297.747 482.832 318.135 475.919 335.249L475.54 336.188H253.92L253.729 334.907C250.948 316.164 253.206 297.537 256.116 279.161C259.037 260.717 262.601 242.587 262.601 224.515C262.601 188.016 264.525 156.151 268.381 128.931L268.563 127.642H492.359ZM231.919 125.5L232.185 126.666C238.514 154.414 241.694 178.376 241.694 198.53V198.552L241.693 198.574L241.281 212.552L241.256 213.419L240.491 213.829C219.798 224.933 194.317 233.716 164.079 240.203C185.343 245.406 205.91 248.006 225.781 248.006H235.223L235.669 248.662C243.641 260.383 241.146 273.5 237.549 287.293C233.906 301.26 229.073 316.13 231.222 332.349L231.447 334.046H131.92L131.735 332.759C130.296 322.699 134.351 313.382 137.435 305.291C140.612 296.956 142.663 290.14 138.854 284.006L138.844 283.991L138.835 283.977C131.181 270.988 121.908 262.072 111.049 257.091C110.846 262.171 110.743 270.732 110.743 282.804C110.743 290.05 108.194 297.958 105.976 306.116C103.728 314.383 101.743 323.107 102.543 332.418L102.683 334.046H20.7129L20.4717 332.841C12.4944 293.023 8.5 256.061 8.5 221.962C8.50001 187.649 10.425 155.929 14.2783 126.804L14.4502 125.5H231.919ZM119.312 158.283C116.347 180.504 114.083 202.372 112.522 223.888C126.173 221.633 137.39 216.696 146.242 209.125C141.297 192.224 132.335 175.277 119.312 158.283Z" stroke="#0088FF" stroke-opacity="0.25" stroke-width="3"/>
</svg>
