<svg width="100" height="100" viewBox="0 0 100 100" fill="none" xmlns="http://www.w3.org/2000/svg">
<path d="M7 23.913L48.9512 2V17.6522L23.7805 32.2609V67.7391L48.9512 80.2609V98L7 75.0435V23.913Z" fill="#FF8700"/>
<path d="M7 23.913L48.9512 2V17.6522L23.7805 32.2609V67.7391L48.9512 80.2609V98L7 75.0435V23.913Z" fill="#FF8700"/>
<path fill-rule="evenodd" clip-rule="evenodd" d="M69.4024 32.7826L50 20.7826V42.6957L69.4024 32.7826Z" fill="#FF8700"/>
<path fill-rule="evenodd" clip-rule="evenodd" d="M69.4024 32.7826L50 20.7826V42.6957L69.4024 32.7826Z" fill="#FF8700"/>
<path d="M51.0488 2V17.6522L76.2195 32.2609V67.7391L51.0488 80.2609V98L93 75.0435V23.913L51.0488 2Z" fill="#FF8700"/>
<path d="M51.0488 2V17.6522L76.2195 32.2609V67.7391L51.0488 80.2609V98L93 75.0435V23.913L51.0488 2Z" fill="#32424F"/>
<path d="M50 20.7826L30.5976 32.7826L50 42.6957V20.7826Z" fill="#FF8700"/>
<path d="M50 20.7826L30.5976 32.7826L50 42.6957V20.7826Z" fill="#32424F"/>
</svg>
